<svg width="52" height="52" viewBox="0 0 52 52" fill="none" xmlns="http://www.w3.org/2000/svg">
<path d="M6.5 19.6235V35.75C6.5 37.4739 7.18482 39.1272 8.40381 40.3462C9.62279 41.5652 11.2761 42.25 13 42.25H39C40.7239 42.25 42.3772 41.5652 43.5962 40.3462C44.8152 39.1272 45.5 37.4739 45.5 35.75V16.25C45.5 14.5261 44.8152 12.8728 43.5962 11.6538C42.3772 10.4348 40.7239 9.75 39 9.75H13C11.2761 9.75 9.62279 10.4348 8.40381 11.6538C7.18482 12.8728 6.5 14.5261 6.5 16.25V19.6235ZM13 13H39C39.862 13 40.6886 13.3424 41.2981 13.9519C41.9076 14.5614 42.25 15.388 42.25 16.25V18.655L26 27.404L9.75 18.655V16.25C9.75 15.388 10.0924 14.5614 10.7019 13.9519C11.3114 13.3424 12.138 13 13 13ZM9.75 22.347L25.2298 30.68C25.4665 30.8074 25.7311 30.8741 26 30.8741C26.2689 30.8741 26.5335 30.8074 26.7703 30.68L42.25 22.347V35.75C42.25 36.612 41.9076 37.4386 41.2981 38.0481C40.6886 38.6576 39.862 39 39 39H13C12.138 39 11.3114 38.6576 10.7019 38.0481C10.0924 37.4386 9.75 36.612 9.75 35.75V22.347Z" fill="black"/>
</svg>
